<?xml version="1.0" encoding="utf-8"?>
<!-- Generator: Adobe Illustrator 21.0.0, SVG Export Plug-In . SVG Version: 6.00 Build 0)  -->
<svg version="1.1" xmlns="http://www.w3.org/2000/svg" xmlns:xlink="http://www.w3.org/1999/xlink" x="0px" y="0px"
	 viewBox="0 0 1400 1400" style="enable-background:new 0 0 1400 1400;" xml:space="preserve">
<style type="text/css">
	.st0{fill:#EDF9F8;}
	.st1{fill:#F9F4F4;}
	.st2{fill:#E6E7E8;}
	.st3{fill:url(#SVGID_1_);}
	.st4{fill:url(#SVGID_2_);}
	.st5{fill:url(#SVGID_3_);}
	.st6{fill:#1B6375;}
	.st7{fill:url(#SVGID_4_);}
	.st8{fill:url(#SVGID_5_);}
	.st9{fill:url(#SVGID_6_);}
	.st10{fill:url(#SVGID_7_);}
	.st11{fill:url(#SVGID_8_);}
	.st12{fill:url(#SVGID_9_);}
	.st13{fill:url(#SVGID_10_);}
	.st14{fill:url(#SVGID_11_);}
	.st15{fill:url(#SVGID_12_);}
	.st16{fill:url(#SVGID_13_);}
	.st17{fill:url(#SVGID_14_);}
	.st18{fill:url(#SVGID_15_);}
	.st19{fill:url(#SVGID_16_);}
	.st20{fill:url(#SVGID_17_);}
	.st21{fill:url(#SVGID_18_);}
	.st22{fill:url(#SVGID_19_);}
	.st23{fill:url(#SVGID_20_);}
	.st24{fill:url(#SVGID_21_);}
	.st25{fill:url(#SVGID_22_);}
	.st26{fill:url(#SVGID_23_);}
	.st27{fill:url(#SVGID_24_);}
	.st28{fill:url(#SVGID_25_);}
	.st29{fill:url(#SVGID_26_);}
	.st30{fill:url(#SVGID_27_);}
	.st31{fill:#3CBCB0;}
	.st32{fill:url(#SVGID_28_);}
	.st33{fill:url(#SVGID_29_);}
	.st34{fill:#834337;}
	.st35{fill:url(#SVGID_30_);}
	.st36{fill:url(#SVGID_31_);}
	.st37{fill:url(#SVGID_32_);}
	.st38{fill:url(#SVGID_33_);}
	.st39{fill:url(#SVGID_34_);}
	.st40{fill:url(#SVGID_35_);}
	.st41{fill:url(#SVGID_36_);}
	.st42{fill:url(#SVGID_37_);}
	.st43{fill:url(#SVGID_38_);}
	.st44{fill:url(#SVGID_39_);}
	.st45{fill:url(#SVGID_40_);}
	.st46{fill:url(#SVGID_41_);}
	.st47{fill:url(#SVGID_42_);}
	.st48{fill:url(#SVGID_43_);}
	.st49{fill:#BF847B;}
	.st50{fill:#E5ACA8;}
	.st51{fill:url(#SVGID_44_);}
	.st52{fill:url(#SVGID_45_);}
	.st53{fill:url(#SVGID_46_);}
	.st54{fill:#FF8ABA;}
	.st55{fill:url(#SVGID_47_);}
	.st56{fill:url(#SVGID_48_);}
	.st57{fill:url(#SVGID_49_);}
	.st58{fill:url(#SVGID_50_);}
	.st59{fill:#CC3E7E;}
	.st60{fill:url(#SVGID_51_);}
	.st61{fill:url(#SVGID_52_);}
	.st62{fill:url(#SVGID_53_);}
	.st63{fill:url(#SVGID_54_);}
	.st64{fill:url(#SVGID_55_);}
	.st65{fill:url(#SVGID_56_);}
</style>
<g id="background">
	<rect class="st0" width="1400" height="1400"/>
</g>
<g id="object">
	
		<radialGradient id="SVGID_1_" cx="731.2737" cy="679.5892" r="153.7263" gradientTransform="matrix(1.8977 0 0 0.3519 -656.4637 618.1342)" gradientUnits="userSpaceOnUse">
		<stop  offset="0" style="stop-color:#6D6E71;stop-opacity:0.6"/>
		<stop  offset="1" style="stop-color:#58595B;stop-opacity:0"/>
	</radialGradient>
	<ellipse class="st3" cx="731.3" cy="857.3" rx="291.7" ry="54.1"/>
	<g>
		<polygon class="st6" points="396.5,625.6 393.8,655.6 382.4,661.1 		"/>
		<linearGradient id="SVGID_2_" gradientUnits="userSpaceOnUse" x1="399.2196" y1="689.5846" x2="392.8862" y2="699.0846">
			<stop  offset="0" style="stop-color:#3CBCB0"/>
			<stop  offset="1" style="stop-color:#1B6375"/>
		</linearGradient>
		<polygon class="st4" points="350.5,669.9 442.1,715.5 440.4,727.5 342.4,675.2 		"/>
		<linearGradient id="SVGID_3_" gradientUnits="userSpaceOnUse" x1="444.5293" y1="751.6382" x2="328.7793" y2="676.1382">
			<stop  offset="0" style="stop-color:#3CBCB0"/>
			<stop  offset="1" style="stop-color:#1B6375"/>
		</linearGradient>
		<polygon class="st5" points="327.5,661.1 445,725.1 435,767.1 426.9,767.1 327.5,691.4 		"/>
		<linearGradient id="SVGID_4_" gradientUnits="userSpaceOnUse" x1="430.1003" y1="759.6669" x2="434.8345" y2="766.3121">
			<stop  offset="0" style="stop-color:#3CBCB0"/>
			<stop  offset="1" style="stop-color:#1B6375"/>
		</linearGradient>
		<polygon class="st7" points="427,766.6 435,763.5 435,753.8 424.8,765.1 		"/>
		<linearGradient id="SVGID_5_" gradientUnits="userSpaceOnUse" x1="348.7824" y1="659.4953" x2="357.4491" y2="682.162">
			<stop  offset="0" style="stop-color:#3CBCB0"/>
			<stop  offset="1" style="stop-color:#1B6375"/>
		</linearGradient>
		<polygon class="st8" points="327.5,691.4 382.4,661.1 378.7,650.3 327.5,661.1 		"/>
		<linearGradient id="SVGID_6_" gradientUnits="userSpaceOnUse" x1="459.0566" y1="724.8717" x2="469.3899" y2="656.5384">
			<stop  offset="0" style="stop-color:#3CBCB0"/>
			<stop  offset="1" style="stop-color:#1B6375"/>
		</linearGradient>
		<polygon class="st9" points="435,669.2 435,767.1 484.7,737.4 495.7,696.9 		"/>
		<linearGradient id="SVGID_7_" gradientUnits="userSpaceOnUse" x1="392.2084" y1="619.8947" x2="382.8714" y2="661.5779">
			<stop  offset="0" style="stop-color:#3CBCB0"/>
			<stop  offset="1" style="stop-color:#1B6375"/>
		</linearGradient>
		<polygon class="st10" points="391,619.2 376.7,655.4 382.4,661.1 392.2,653.6 396.5,625.6 		"/>
		<linearGradient id="SVGID_8_" gradientUnits="userSpaceOnUse" x1="374.5006" y1="650.4954" x2="379.3289" y2="654.2183">
			<stop  offset="0" style="stop-color:#3CBCB0"/>
			<stop  offset="1" style="stop-color:#1B6375"/>
		</linearGradient>
		<polygon class="st11" points="371.8,651.8 376.7,655.4 378.7,650.3 		"/>
		<linearGradient id="SVGID_9_" gradientUnits="userSpaceOnUse" x1="934.0413" y1="844.0695" x2="887.5413" y2="778.0695">
			<stop  offset="0" style="stop-color:#3CBCB0"/>
			<stop  offset="1" style="stop-color:#1B6375"/>
		</linearGradient>
		<polygon class="st12" points="872,780.2 866.7,861.9 925,872.6 950.4,753.9 		"/>
		<linearGradient id="SVGID_10_" gradientUnits="userSpaceOnUse" x1="949.0473" y1="691.0096" x2="1036.3806" y2="691.0096">
			<stop  offset="0" style="stop-color:#3CBCB0"/>
			<stop  offset="1" style="stop-color:#1B6375"/>
		</linearGradient>
		<path class="st13" d="M949,696.2l87.3,31.3c0,0-84.3-72.3-86-72.9l-0.4,44.3"/>
		<linearGradient id="SVGID_11_" gradientUnits="userSpaceOnUse" x1="741.958" y1="454.7276" x2="613.2914" y2="971.3943">
			<stop  offset="0" style="stop-color:#3CBCB0"/>
			<stop  offset="1" style="stop-color:#1B6375"/>
		</linearGradient>
		<polygon class="st14" points="577,481.4 822,481.4 808.5,822.9 556,722.9 		"/>
		<linearGradient id="SVGID_12_" gradientUnits="userSpaceOnUse" x1="678.2083" y1="777.5035" x2="632.2083" y2="757.5035">
			<stop  offset="0" style="stop-color:#3CBCB0"/>
			<stop  offset="1" style="stop-color:#1B6375"/>
		</linearGradient>
		<polygon class="st15" points="714.3,652.1 718.5,662.6 631.8,889.9 608.8,888.4 646.8,693.6 		"/>
		<linearGradient id="SVGID_13_" gradientUnits="userSpaceOnUse" x1="627.1202" y1="857.5542" x2="608.6202" y2="886.5542">
			<stop  offset="0" style="stop-color:#3CBCB0"/>
			<stop  offset="1" style="stop-color:#1B6375"/>
		</linearGradient>
		<polygon class="st16" points="614,838.4 631.8,889.9 608.8,888.4 		"/>
		<linearGradient id="SVGID_14_" gradientUnits="userSpaceOnUse" x1="709.505" y1="572.9749" x2="595.005" y2="692.9749">
			<stop  offset="0" style="stop-color:#3CBCB0"/>
			<stop  offset="1" style="stop-color:#1B6375"/>
		</linearGradient>
		<polygon class="st17" points="635,560.4 718.5,654.1 651.2,711.3 607,618 		"/>
		<linearGradient id="SVGID_15_" gradientUnits="userSpaceOnUse" x1="606.9511" y1="439.4429" x2="609.4511" y2="443.7763">
			<stop  offset="0" style="stop-color:#3CBCB0"/>
			<stop  offset="1" style="stop-color:#1B6375"/>
		</linearGradient>
		<polygon class="st18" points="546,478.4 662.8,404.6 672.5,408.6 		"/>
		<linearGradient id="SVGID_16_" gradientUnits="userSpaceOnUse" x1="658.1277" y1="453.9534" x2="470.6277" y2="503.4534">
			<stop  offset="0" style="stop-color:#3CBCB0"/>
			<stop  offset="1" style="stop-color:#1B6375"/>
		</linearGradient>
		<polygon class="st19" points="638.5,500.6 672.5,408.6 546,478.4 		"/>
		<linearGradient id="SVGID_17_" gradientUnits="userSpaceOnUse" x1="488.3063" y1="521.6274" x2="493.3063" y2="527.6274">
			<stop  offset="0" style="stop-color:#3CBCB0"/>
			<stop  offset="1" style="stop-color:#1B6375"/>
		</linearGradient>
		<polygon class="st20" points="440.8,574.1 440.8,561.9 544.6,479.7 		"/>
		<linearGradient id="SVGID_18_" gradientUnits="userSpaceOnUse" x1="583.8896" y1="598.1743" x2="500.5563" y2="589.5076">
			<stop  offset="0" style="stop-color:#3CBCB0"/>
			<stop  offset="1" style="stop-color:#1B6375"/>
		</linearGradient>
		<polygon class="st21" points="433.5,578.4 433.5,670.4 556,722.9 669.5,489.4 659,478.4 546,478.4 		"/>
		<linearGradient id="SVGID_19_" gradientUnits="userSpaceOnUse" x1="614.9519" y1="604.1444" x2="604.7019" y2="599.3944">
			<stop  offset="0" style="stop-color:#3CBCB0"/>
			<stop  offset="1" style="stop-color:#1B6375"/>
		</linearGradient>
		<polygon class="st22" points="551.5,721 551.5,717.2 659,478.4 669.5,489.4 556,722.9 		"/>
		<linearGradient id="SVGID_20_" gradientUnits="userSpaceOnUse" x1="545.1812" y1="687.2293" x2="465.1812" y2="524.2293">
			<stop  offset="0" style="stop-color:#3CBCB0"/>
			<stop  offset="1" style="stop-color:#1B6375"/>
		</linearGradient>
		<polygon class="st23" points="546,478.4 551.5,721 433.5,670.4 433.5,578.4 		"/>
		<linearGradient id="SVGID_21_" gradientUnits="userSpaceOnUse" x1="377.9596" y1="616.8049" x2="391.7929" y2="627.4716">
			<stop  offset="0" style="stop-color:#3CBCB0"/>
			<stop  offset="1" style="stop-color:#1B6375"/>
		</linearGradient>
		<polygon class="st24" points="391,619.2 371.1,619.2 388.7,625.1 		"/>
		<linearGradient id="SVGID_22_" gradientUnits="userSpaceOnUse" x1="910.4342" y1="372.2809" x2="830.9382" y2="1098.2446">
			<stop  offset="0" style="stop-color:#3CBCB0"/>
			<stop  offset="1" style="stop-color:#1B6375"/>
		</linearGradient>
		<polygon class="st25" points="808.7,478.4 836,478.4 973.7,617.2 952.4,763.2 808.5,822.9 		"/>
		<linearGradient id="SVGID_23_" gradientUnits="userSpaceOnUse" x1="613.9304" y1="676.195" x2="560.597" y2="641.5283">
			<stop  offset="0" style="stop-color:#3CBCB0"/>
			<stop  offset="1" style="stop-color:#1B6375"/>
		</linearGradient>
		<polygon class="st26" points="619.1,593.2 663.7,663.6 560,727.5 556,722.9 		"/>
		<linearGradient id="SVGID_24_" gradientUnits="userSpaceOnUse" x1="659.3584" y1="820.7689" x2="494.6917" y2="661.4355">
			<stop  offset="0" style="stop-color:#3CBCB0"/>
			<stop  offset="1" style="stop-color:#1B6375"/>
		</linearGradient>
		<polygon class="st27" points="563.7,884.9 613.4,893.2 660.7,665.4 561.2,726.8 		"/>
		<linearGradient id="SVGID_25_" gradientUnits="userSpaceOnUse" x1="902.6907" y1="534.2289" x2="891.1907" y2="549.2289">
			<stop  offset="0" style="stop-color:#3CBCB0"/>
			<stop  offset="1" style="stop-color:#1B6375"/>
		</linearGradient>
		<polygon class="st28" points="838.3,480.6 958,584.2 957.3,600.6 		"/>
		<polygon class="st31" points="476.3,540.3 551.5,717.2 477.6,540.6 546,478.4 		"/>
		<polygon class="st31" points="660.7,665.4 611,892.8 613.4,893.2 		"/>
		<polygon class="st31" points="619.1,593.2 618.3,594.9 662.8,664.1 663.7,663.6 		"/>
		<polygon class="st31" points="556,722.9 555.2,720 666.8,489.2 659,478.4 669.5,489.4 556.6,721.5 		"/>
		<polygon class="st31" points="476.3,540.3 435,578.9 435,670.9 433.5,670.4 433.5,578.4 		"/>
		<polygon class="st31" points="435,767.1 435,673 437,765.9 		"/>
		<polygon class="st31" points="435,719.6 356.1,676.6 435,721.9 		"/>
		<polygon class="st31" points="376.7,655.4 391,621.1 396.5,625.6 391,619.2 		"/>
		<polygon class="st31" points="546,478.4 656.5,480.6 552.3,715.5 659,478.4 		"/>
		<polygon class="st31" points="808.5,481.4 661.9,481.4 663.7,483.3 		"/>
		<polygon class="st31" points="808.5,822.9 813.3,482.3 834.7,482.3 973.7,617.2 836,478.4 808.7,478.4 		"/>
		<polygon class="st31" points="808.5,822.9 952.4,763.2 973.7,617.2 951.2,762.5 		"/>
		<polygon class="st31" points="620.7,857.3 631.8,889.9 630.6,889.9 		"/>
		<polygon class="st31" points="635,560.4 715.8,653.9 651.2,711.3 718.5,654.1 		"/>
		<polygon class="st31" points="716,656.3 718.5,662.6 631.8,889.9 716,664.1 		"/>
		<polygon class="st31" points="948,765 925,872.6 866.7,861.9 922.5,868.9 		"/>
		<linearGradient id="SVGID_26_" gradientUnits="userSpaceOnUse" x1="958.2371" y1="595.0268" x2="953.4871" y2="588.1935">
			<stop  offset="0" style="stop-color:#3CBCB0"/>
			<stop  offset="1" style="stop-color:#1B6375"/>
		</linearGradient>
		<polygon class="st29" points="949,592.3 958,584.2 957.3,600.6 		"/>
		<linearGradient id="SVGID_27_" gradientUnits="userSpaceOnUse" x1="914.548" y1="556.4778" x2="856.9526" y2="473.6212">
			<stop  offset="0" style="stop-color:#3CBCB0"/>
			<stop  offset="1" style="stop-color:#1B6375"/>
		</linearGradient>
		<polygon class="st30" points="836,478.4 958,584.2 949,592.3 954.8,584.2 		"/>
		<path class="st31" d="M965,673.3c0-0.2,71.4,54.2,71.4,54.2L965,676.7V673.3z"/>
	</g>
</g>
<g id="text">
</g>
</svg>
